<svg width="21" height="21" viewBox="0 0 21 21" fill="none" xmlns="http://www.w3.org/2000/svg">
<path d="M8 5.75C8 6.34674 7.76295 6.91903 7.34099 7.34099C6.91903 7.76295 6.34674 8 5.75 8C5.15326 8 4.58097 7.76295 4.15901 7.34099C3.73705 6.91903 3.5 6.34674 3.5 5.75C3.5 5.15326 3.73705 4.58097 4.15901 4.15901C4.58097 3.73705 5.15326 3.5 5.75 3.5C6.34674 3.5 6.91903 3.73705 7.34099 4.15901C7.76295 4.58097 8 5.15326 8 5.75V5.75ZM6.5 5.75C6.5 5.55109 6.42098 5.36032 6.28033 5.21967C6.13968 5.07902 5.94891 5 5.75 5C5.55109 5 5.36032 5.07902 5.21967 5.21967C5.07902 5.36032 5 5.55109 5 5.75C5 5.94891 5.07902 6.13968 5.21967 6.28033C5.36032 6.42098 5.55109 6.5 5.75 6.5C5.94891 6.5 6.13968 6.42098 6.28033 6.28033C6.42098 6.13968 6.5 5.94891 6.5 5.75Z" fill="#545454"/>
<path d="M2 0.5H8.879C9.27679 0.500085 9.65826 0.658176 9.9395 0.9395L20.4395 11.4395C20.7207 11.7208 20.8787 12.1023 20.8787 12.5C20.8787 12.8977 20.7207 13.2792 20.4395 13.5605L13.5605 20.4395C13.2792 20.7207 12.8977 20.8787 12.5 20.8787C12.1023 20.8787 11.7208 20.7207 11.4395 20.4395L0.9395 9.9395C0.658176 9.65826 0.500085 9.27679 0.5 8.879V2C0.5 1.60218 0.658035 1.22064 0.93934 0.93934C1.22064 0.658035 1.60218 0.5 2 0.5V0.5ZM2 8.879L12.5 19.379L19.379 12.5L8.879 2H2V8.879Z" fill="#545454"/>
</svg>
