<svg width="24" height="23" viewBox="0 0 24 23" fill="none" xmlns="http://www.w3.org/2000/svg">
<path d="M23.7733 19.7603L13.67 0.997706C12.9538 -0.332569 11.0462 -0.332569 10.3294 0.997706L0.22671 19.7603C0.0712221 20.0491 -0.00673225 20.3732 0.000455694 20.7012C0.00764364 21.0291 0.0997284 21.3495 0.267722 21.6312C0.435715 21.9129 0.673877 22.1462 0.95896 22.3084C1.24404 22.4706 1.56631 22.5561 1.8943 22.5566H22.1027C22.431 22.5566 22.7536 22.4715 23.0391 22.3095C23.3246 22.1475 23.5632 21.9143 23.7315 21.6325C23.8999 21.3507 23.9922 21.03 23.9995 20.7019C24.0069 20.3737 23.9289 20.0493 23.7733 19.7603ZM12 19.6518C11.7655 19.6518 11.5363 19.5823 11.3413 19.452C11.1463 19.3217 10.9944 19.1365 10.9046 18.9199C10.8149 18.7032 10.7914 18.4648 10.8372 18.2349C10.8829 18.0049 10.9958 17.7936 11.1616 17.6278C11.3274 17.462 11.5387 17.3491 11.7687 17.3033C11.9987 17.2576 12.2371 17.281 12.4537 17.3708C12.6704 17.4605 12.8555 17.6125 12.9858 17.8075C13.1161 18.0024 13.1856 18.2317 13.1856 18.4662C13.1856 18.7806 13.0607 19.0822 12.8384 19.3045C12.616 19.5269 12.3144 19.6518 12 19.6518ZM13.2876 7.72733L12.9473 14.9597C12.9473 15.2112 12.8474 15.4525 12.6695 15.6304C12.4916 15.8082 12.2504 15.9082 11.9988 15.9082C11.7473 15.9082 11.506 15.8082 11.3281 15.6304C11.1502 15.4525 11.0503 15.2112 11.0503 14.9597L10.71 7.7303C10.7024 7.55754 10.7296 7.38502 10.7901 7.22301C10.8505 7.061 10.9429 6.91282 11.0619 6.78729C11.1808 6.66177 11.3238 6.56148 11.4823 6.4924C11.6409 6.42332 11.8117 6.38686 11.9846 6.3852H11.997C12.1711 6.38511 12.3434 6.4203 12.5036 6.48863C12.6637 6.55696 12.8083 6.65702 12.9287 6.78278C13.0491 6.90854 13.1427 7.05739 13.204 7.22034C13.2653 7.38329 13.2929 7.55697 13.2852 7.73089L13.2876 7.72733Z" fill="#F2994A"/>
</svg>
